# xmcd
#
# Track frame offsets: 
#        150
#        19162
#        40085
#        54821
#        73388
#        98997
#        115624
#        134189
#        150622
#        174196
#        202260
#
# Disc length: 2977 seconds
#
# Revision: 0
# Processed by: cddbd v1.5.2PL0 Copyright (c) Steve Scherf et al.
# Submitted via: ExactAudioCopy v0.99pb4
#
DISCID=980b9f0b
DTITLE=Ty Billings - You Can Take The Boy Out of the Country
DYEAR=2006
DGENRE=Country
TTITLE0=Mississippi River
TTITLE1=Margaritaville
TTITLE2=Name of God
TTITLE3=Rap Like a White Boy
TTITLE4=Carry Me
TTITLE5=Prince Charming
TTITLE6=Baby
TTITLE7=Maggie
TTITLE8=Spirit of the Suwannee
TTITLE9=Connie's Kitchen
TTITLE10=Will We Ever
EXTD=
EXTT0=
EXTT1=
EXTT2=
EXTT3=
EXTT4=
EXTT5=
EXTT6=
EXTT7=
EXTT8=
EXTT9=
EXTT10=
PLAYORDER=
